<svg width="40" height="40" viewBox="0 0 40 40" fill="none" xmlns="http://www.w3.org/2000/svg">
<path d="M20.125 32.833C16.5697 32.833 13.542 31.583 11.042 29.083C8.54199 26.583 7.29199 23.5553 7.29199 20C7.29199 16.8613 8.28499 14.1183 10.271 11.771C12.257 9.42367 14.736 7.95834 17.708 7.37501H17.625C17.597 7.37501 17.583 7.36101 17.583 7.33301C17.2223 8.13901 16.9447 8.97234 16.75 9.83301C16.5553 10.6943 16.458 11.5833 16.458 12.5C16.458 15.6113 17.5413 18.2503 19.708 20.417C21.8747 22.5837 24.5137 23.667 27.625 23.667C28.5137 23.667 29.3957 23.5767 30.271 23.396C31.1457 23.2153 31.972 22.9443 32.75 22.583C32.722 22.583 32.708 22.5623 32.708 22.521V22.417C32.1527 25.389 30.7013 27.868 28.354 29.854C26.0067 31.84 23.2637 32.833 20.125 32.833ZM20.125 31.833C22.6803 31.833 24.965 31.104 26.979 29.646C28.993 28.1873 30.4027 26.347 31.208 24.125C30.6247 24.2917 30.0347 24.4237 29.438 24.521C28.8407 24.6183 28.2363 24.667 27.625 24.667C24.2637 24.667 21.3957 23.4793 19.021 21.104C16.6457 18.7293 15.458 15.8613 15.458 12.5C15.458 11.9167 15.5067 11.3263 15.604 10.729C15.7013 10.1317 15.8473 9.51367 16.042 8.87501C13.764 9.73634 11.9027 11.1807 10.458 13.208C9.01399 15.236 8.29199 17.5 8.29199 20C8.29199 23.278 9.44466 26.0697 11.75 28.375C14.0553 30.6803 16.847 31.833 20.125 31.833Z" fill="#EAEAEA"/>
</svg>
