<svg width="890" height="130" viewBox="0 0 890 130" fill="none" xmlns="http://www.w3.org/2000/svg">
<path d="M119.788 107.033L109.274 108.929V0H140.815V129.267H99.7943L21.0275 20.338L31.5412 18.4421V129.267H0V0H42.2273L119.788 107.033Z" fill="#B9B7B7"/>
<path d="M215.599 129.267V66.7019H248.174V129.267H215.599ZM154.929 0H190.952L239.212 61.3588H224.217L272.476 0H308.499L242.314 84.1099L221.286 84.4546L154.929 0Z" fill="#B9B7B7"/>
<path d="M363.343 14.3056H395.918V129.267H363.343V14.3056ZM313.015 0H446.246V28.7835H313.015V0Z" fill="#B9B7B7"/>
<path d="M456.345 129.267V105.482L543.73 18.0974L566.826 25.6811H457.035V0H579.408V23.6128L492.023 111.17L472.202 103.414H579.925V129.267H456.345Z" fill="#B9B7B7"/>
</svg>
