<svg width="1108" height="135" viewBox="0 0 1108 135" fill="none" xmlns="http://www.w3.org/2000/svg">
<path d="M0 89.7976H32.92C33.4946 93.7044 35.2756 97.1515 38.2631 100.139C41.2506 103.126 45.2148 105.425 50.1557 107.033C55.2115 108.642 61.0716 109.446 67.736 109.446C77.2731 109.446 84.7418 108.125 90.1423 105.482C95.6577 102.839 98.4154 99.1048 98.4154 94.2789C98.4154 90.6019 96.8068 87.7868 93.5894 85.8334C90.487 83.7651 84.6269 82.2714 76.0091 81.3521L51.0175 78.7668C33.6669 77.0432 21.0849 73.0216 13.2714 66.7019C5.57285 60.3821 1.72356 51.7643 1.72356 40.8484C1.72356 32.2306 4.25145 24.8768 9.30724 18.7868C14.4779 12.6969 21.6594 8.04329 30.8518 4.82598C40.159 1.60866 51.0175 0 63.4271 0C75.7219 0 86.5803 1.78101 96.0024 5.34305C105.425 8.90507 112.951 13.846 118.581 20.1657C124.211 26.4854 127.256 33.8393 127.716 42.2273H94.7959C94.3363 38.7802 92.7277 35.8501 89.97 33.4371C87.3272 30.9092 83.7077 28.9558 79.1115 27.577C74.6303 26.0832 69.1723 25.3364 62.7377 25.3364C54.1199 25.3364 47.2256 26.6003 42.0549 29.1282C36.9991 31.5412 34.4713 35.0458 34.4713 39.6419C34.4713 43.0891 35.965 45.7893 38.9525 47.7427C42.0549 49.696 47.5129 51.1324 55.3264 52.0516L81.6969 54.9816C93.7618 56.2456 103.414 58.2564 110.653 61.0141C117.892 63.7718 123.12 67.5637 126.337 72.3896C129.554 77.2156 131.163 83.3055 131.163 90.6594C131.163 99.507 128.463 107.263 123.062 113.927C117.777 120.477 110.308 125.59 100.656 129.267C91.119 132.944 79.9733 134.783 67.2189 134.783C54.005 134.783 42.3996 132.887 32.403 129.095C22.5212 125.303 14.7077 120.075 8.96253 113.41C3.33222 106.631 0.344713 98.7601 0 89.7976Z" fill="#B9B7B7"/>
<path d="M185.914 17.0633H218.49V132.025H185.914V17.0633ZM135.586 2.7577H268.818V31.5412H135.586V2.7577Z" fill="#B9B7B7"/>
<path d="M315.284 74.8026C315.284 81.1224 316.491 86.6377 318.904 91.3488C321.431 95.945 325.051 99.507 329.762 102.035C334.473 104.448 340.276 105.654 347.17 105.654C354.179 105.654 360.039 104.448 364.75 102.035C369.461 99.507 373.023 95.945 375.436 91.3488C377.849 86.6377 379.056 81.1224 379.056 74.8026V2.7577H411.459V76.3538C411.459 88.074 408.759 98.3005 403.358 107.033C398.073 115.766 390.604 122.603 380.952 127.544C371.3 132.37 360.039 134.783 347.17 134.783C334.301 134.783 323.04 132.37 313.388 127.544C303.736 122.603 296.21 115.766 290.809 107.033C285.409 98.3005 282.709 88.074 282.709 76.3538V2.7577H315.284V74.8026Z" fill="#B9B7B7"/>
<path d="M498.158 2.7577C513.325 2.7577 526.597 5.45795 537.972 10.8584C549.348 16.2589 558.195 23.7852 564.515 33.4371C570.95 43.0891 574.167 54.4071 574.167 67.3913C574.167 80.2606 570.95 91.5786 564.515 101.345C558.195 110.997 549.348 118.524 537.972 123.924C526.597 129.325 513.325 132.025 498.158 132.025H435.076V2.7577H498.158ZM467.479 118.753L451.622 103.241H500.571C508.844 103.241 516.026 101.748 522.116 98.7601C528.206 95.7726 532.917 91.6361 536.249 86.3505C539.581 80.95 541.247 74.6303 541.247 67.3913C541.247 60.0374 539.581 53.7177 536.249 48.4321C532.917 43.1465 528.206 39.01 522.116 36.0225C516.026 33.035 508.844 31.5412 500.571 31.5412H451.622L467.479 16.0291V118.753Z" fill="#B9B7B7"/>
<path d="M593.293 2.7577H625.869V132.025H593.293V2.7577Z" fill="#B9B7B7"/>
<path d="M721.175 134.783C706.008 134.783 692.679 131.967 681.188 126.337C669.813 120.707 660.965 112.836 654.645 102.724C648.326 92.6128 645.166 80.8351 645.166 67.3913C645.166 53.9475 648.326 42.1698 654.645 32.0583C660.965 21.9467 669.813 14.0758 681.188 8.44546C692.679 2.81515 706.008 0 721.175 0C736.342 0 749.614 2.81515 760.989 8.44546C772.48 14.0758 781.385 21.9467 787.704 32.0583C794.139 42.1698 797.356 53.9475 797.356 67.3913C797.356 80.8351 794.139 92.6128 787.704 102.724C781.385 112.836 772.48 120.707 760.989 126.337C749.614 131.967 736.342 134.783 721.175 134.783ZM721.175 105.654C730.137 105.654 737.836 104.161 744.271 101.173C750.705 98.0707 755.646 93.6469 759.093 87.9017C762.655 82.1565 764.436 75.3197 764.436 67.3913C764.436 59.4629 762.655 52.6261 759.093 46.8809C755.646 41.1357 750.705 36.7693 744.271 33.7818C737.836 30.6794 730.137 29.1282 721.175 29.1282C712.327 29.1282 704.686 30.6794 698.252 33.7818C691.817 36.7693 686.819 41.1357 683.257 46.8809C679.695 52.6261 677.913 59.4629 677.913 67.3913C677.913 75.3197 679.695 82.1565 683.257 87.9017C686.819 93.6469 691.817 98.0707 698.252 101.173C704.686 104.161 712.327 105.654 721.175 105.654Z" fill="#B9B7B7"/>
</svg>
