<svg width="40" height="40" viewBox="0 0 40 40" fill="none" xmlns="http://www.w3.org/2000/svg">
<path d="M20 25.167C21.4167 25.167 22.632 24.667 23.646 23.667C24.66 22.667 25.167 21.4447 25.167 20C25.167 18.5833 24.667 17.368 23.667 16.354C22.667 15.34 21.4447 14.833 20 14.833C18.5833 14.833 17.368 15.333 16.354 16.333C15.34 17.333 14.833 18.5553 14.833 20C14.833 21.4167 15.333 22.632 16.333 23.646C17.333 24.66 18.5553 25.167 20 25.167ZM20 26.167C18.278 26.167 16.8197 25.5697 15.625 24.375C14.4303 23.1803 13.833 21.722 13.833 20C13.833 18.278 14.4303 16.8197 15.625 15.625C16.8197 14.4303 18.278 13.833 20 13.833C21.722 13.833 23.1803 14.4303 24.375 15.625C25.5697 16.8197 26.167 18.278 26.167 20C26.167 21.722 25.5697 23.1803 24.375 24.375C23.1803 25.5697 21.722 26.167 20 26.167ZM3.25 20.5C3.11133 20.5 2.99333 20.4513 2.896 20.354C2.79867 20.2567 2.75 20.1387 2.75 20C2.75 19.8613 2.79867 19.7433 2.896 19.646C2.99333 19.5487 3.11133 19.5 3.25 19.5H7.833C7.97233 19.5 8.09067 19.5487 8.188 19.646C8.28467 19.7433 8.333 19.8613 8.333 20C8.333 20.1387 8.28467 20.2567 8.188 20.354C8.09067 20.4513 7.97233 20.5 7.833 20.5H3.25ZM32.167 20.5C32.0277 20.5 31.9093 20.4513 31.812 20.354C31.7153 20.2567 31.667 20.1387 31.667 20C31.667 19.8613 31.7153 19.7433 31.812 19.646C31.9093 19.5487 32.0277 19.5 32.167 19.5H36.75C36.8887 19.5 37.0067 19.5487 37.104 19.646C37.2013 19.7433 37.25 19.8613 37.25 20C37.25 20.1387 37.2013 20.2567 37.104 20.354C37.0067 20.4513 36.8887 20.5 36.75 20.5H32.167ZM20 8.333C19.8613 8.333 19.7433 8.28467 19.646 8.188C19.5487 8.09067 19.5 7.97233 19.5 7.833V3.25C19.5 3.11133 19.5487 2.99333 19.646 2.896C19.7433 2.79867 19.8613 2.75 20 2.75C20.1387 2.75 20.2567 2.79867 20.354 2.896C20.4513 2.99333 20.5 3.11133 20.5 3.25V7.833C20.5 7.97233 20.4513 8.09067 20.354 8.188C20.2567 8.28467 20.1387 8.333 20 8.333ZM20 37.25C19.8613 37.25 19.7433 37.2013 19.646 37.104C19.5487 37.0067 19.5 36.8887 19.5 36.75V32.167C19.5 32.0277 19.5487 31.9093 19.646 31.812C19.7433 31.7153 19.8613 31.667 20 31.667C20.1387 31.667 20.2567 31.7153 20.354 31.812C20.4513 31.9093 20.5 32.0277 20.5 32.167V36.75C20.5 36.8887 20.4513 37.0067 20.354 37.104C20.2567 37.2013 20.1387 37.25 20 37.25ZM11.083 11.708L8.375 9.083C8.29167 8.99967 8.25 8.88867 8.25 8.75C8.25 8.61133 8.29167 8.48633 8.375 8.375C8.48633 8.26367 8.60433 8.208 8.729 8.208C8.85433 8.208 8.97233 8.26367 9.083 8.375L11.75 11.042C11.8613 11.1527 11.917 11.2707 11.917 11.396C11.917 11.5207 11.8753 11.6387 11.792 11.75C11.6807 11.8613 11.5627 11.91 11.438 11.896C11.3127 11.882 11.1943 11.8193 11.083 11.708ZM30.917 31.625L28.25 28.958C28.1387 28.8473 28.083 28.7293 28.083 28.604C28.083 28.4793 28.1387 28.3613 28.25 28.25C28.3333 28.1387 28.4373 28.09 28.562 28.104C28.6873 28.118 28.8057 28.1807 28.917 28.292L31.625 30.917C31.7083 31.0003 31.75 31.1113 31.75 31.25C31.75 31.3887 31.7083 31.5137 31.625 31.625C31.5137 31.7363 31.3957 31.792 31.271 31.792C31.1457 31.792 31.0277 31.7363 30.917 31.625ZM28.25 11.75C28.1387 11.6667 28.09 11.5627 28.104 11.438C28.118 11.3127 28.1807 11.1943 28.292 11.083L30.917 8.375C31.0003 8.29167 31.1113 8.25 31.25 8.25C31.3887 8.25 31.5137 8.29167 31.625 8.375C31.7363 8.48633 31.792 8.60433 31.792 8.729C31.792 8.85433 31.7363 8.97233 31.625 9.083L28.958 11.75C28.8473 11.8613 28.7293 11.917 28.604 11.917C28.4793 11.917 28.3613 11.8613 28.25 11.75ZM8.375 31.625C8.26367 31.5137 8.208 31.3957 8.208 31.271C8.208 31.1457 8.26367 31.0277 8.375 30.917L11.042 28.25C11.1527 28.1387 11.2707 28.083 11.396 28.083C11.5207 28.083 11.6387 28.1387 11.75 28.25C11.8333 28.3333 11.868 28.4373 11.854 28.562C11.84 28.6873 11.7913 28.8057 11.708 28.917L9.083 31.625C8.97233 31.7363 8.85433 31.792 8.729 31.792C8.60433 31.792 8.48633 31.7363 8.375 31.625Z" fill="#272727"/>
</svg>
